<mxfile host="app.diagrams.net" modified="2023-05-21T14:28:23.563Z" agent="Mozilla/5.0 (Windows NT 10.0; Win64; x64) AppleWebKit/537.36 (KHTML, like Gecko) Chrome/113.0.0.0 Safari/537.36" etag="pgcYIXLqVwctsFjBuhiv" version="21.3.2" type="device">
  <diagram name="Page-1" id="_1b1bHqvucRMg29HZ7Ez">
    <mxGraphModel dx="1868" dy="545" grid="1" gridSize="10" guides="1" tooltips="1" connect="1" arrows="1" fold="1" page="1" pageScale="1" pageWidth="850" pageHeight="1100" math="0" shadow="0">
      <root>
        <mxCell id="0" />
        <mxCell id="1" parent="0" />
        <mxCell id="KcolCgrBJPJPD1rOeQyU-13" value="Instance" style="rounded=0;whiteSpace=wrap;html=1;fillColor=#d5e8d4;strokeColor=#82b366;" vertex="1" parent="1">
          <mxGeometry x="250" y="118" width="420" height="30" as="geometry" />
        </mxCell>
        <mxCell id="KcolCgrBJPJPD1rOeQyU-1" value="" style="endArrow=none;html=1;rounded=0;strokeWidth=3;" edge="1" parent="1">
          <mxGeometry width="50" height="50" relative="1" as="geometry">
            <mxPoint x="170" y="490" as="sourcePoint" />
            <mxPoint x="170" y="80" as="targetPoint" />
          </mxGeometry>
        </mxCell>
        <mxCell id="KcolCgrBJPJPD1rOeQyU-2" value="" style="endArrow=none;html=1;rounded=0;strokeWidth=3;" edge="1" parent="1">
          <mxGeometry width="50" height="50" relative="1" as="geometry">
            <mxPoint x="420" y="500" as="sourcePoint" />
            <mxPoint x="420" y="90" as="targetPoint" />
          </mxGeometry>
        </mxCell>
        <mxCell id="KcolCgrBJPJPD1rOeQyU-3" value="" style="endArrow=none;html=1;rounded=0;dashed=1;" edge="1" parent="1">
          <mxGeometry width="50" height="50" relative="1" as="geometry">
            <mxPoint x="250" y="500" as="sourcePoint" />
            <mxPoint x="250" y="90" as="targetPoint" />
          </mxGeometry>
        </mxCell>
        <mxCell id="KcolCgrBJPJPD1rOeQyU-4" value="Container" style="text;html=1;align=center;verticalAlign=middle;resizable=0;points=[];autosize=1;strokeColor=none;fillColor=none;" vertex="1" parent="1">
          <mxGeometry x="130" y="40" width="80" height="30" as="geometry" />
        </mxCell>
        <mxCell id="KcolCgrBJPJPD1rOeQyU-5" value="" style="endArrow=none;html=1;rounded=0;dashed=1;" edge="1" parent="1">
          <mxGeometry width="50" height="50" relative="1" as="geometry">
            <mxPoint x="330" y="500" as="sourcePoint" />
            <mxPoint x="330" y="90" as="targetPoint" />
          </mxGeometry>
        </mxCell>
        <mxCell id="KcolCgrBJPJPD1rOeQyU-6" value="Call1" style="text;html=1;align=center;verticalAlign=middle;resizable=0;points=[];autosize=1;strokeColor=none;fillColor=none;" vertex="1" parent="1">
          <mxGeometry x="215" y="40" width="50" height="30" as="geometry" />
        </mxCell>
        <mxCell id="KcolCgrBJPJPD1rOeQyU-7" value="Call2" style="text;html=1;align=center;verticalAlign=middle;resizable=0;points=[];autosize=1;strokeColor=none;fillColor=none;" vertex="1" parent="1">
          <mxGeometry x="310" y="40" width="50" height="30" as="geometry" />
        </mxCell>
        <mxCell id="KcolCgrBJPJPD1rOeQyU-8" value="SubContainer" style="text;html=1;align=center;verticalAlign=middle;resizable=0;points=[];autosize=1;strokeColor=none;fillColor=none;" vertex="1" parent="1">
          <mxGeometry x="370" y="40" width="100" height="30" as="geometry" />
        </mxCell>
        <mxCell id="KcolCgrBJPJPD1rOeQyU-9" value="SubCall1" style="text;html=1;align=center;verticalAlign=middle;resizable=0;points=[];autosize=1;strokeColor=none;fillColor=none;" vertex="1" parent="1">
          <mxGeometry x="480" y="40" width="70" height="30" as="geometry" />
        </mxCell>
        <mxCell id="KcolCgrBJPJPD1rOeQyU-10" value="" style="endArrow=none;html=1;rounded=0;dashed=1;" edge="1" parent="1">
          <mxGeometry width="50" height="50" relative="1" as="geometry">
            <mxPoint x="510" y="500" as="sourcePoint" />
            <mxPoint x="510" y="90" as="targetPoint" />
          </mxGeometry>
        </mxCell>
        <mxCell id="KcolCgrBJPJPD1rOeQyU-11" value="Bind" style="rounded=0;whiteSpace=wrap;html=1;" vertex="1" parent="1">
          <mxGeometry x="170" y="120" width="50" height="30" as="geometry" />
        </mxCell>
        <mxCell id="KcolCgrBJPJPD1rOeQyU-12" value="AsCached / AsSingle" style="text;html=1;align=center;verticalAlign=middle;resizable=0;points=[];autosize=1;strokeColor=#666666;fillColor=#f5f5f5;fontColor=#333333;" vertex="1" parent="1">
          <mxGeometry x="30" y="120" width="140" height="30" as="geometry" />
        </mxCell>
        <mxCell id="KcolCgrBJPJPD1rOeQyU-14" value="Bind" style="rounded=0;whiteSpace=wrap;html=1;" vertex="1" parent="1">
          <mxGeometry x="170" y="170" width="50" height="30" as="geometry" />
        </mxCell>
        <mxCell id="KcolCgrBJPJPD1rOeQyU-15" value="Bind" style="rounded=0;whiteSpace=wrap;html=1;" vertex="1" parent="1">
          <mxGeometry x="420" y="170" width="50" height="30" as="geometry" />
        </mxCell>
        <mxCell id="KcolCgrBJPJPD1rOeQyU-16" value="Instance 1" style="rounded=0;whiteSpace=wrap;html=1;fillColor=#d5e8d4;strokeColor=#82b366;" vertex="1" parent="1">
          <mxGeometry x="250" y="170" width="160" height="30" as="geometry" />
        </mxCell>
        <mxCell id="KcolCgrBJPJPD1rOeQyU-17" value="Instance 2" style="rounded=0;whiteSpace=wrap;html=1;fillColor=#e1d5e7;strokeColor=#9673a6;" vertex="1" parent="1">
          <mxGeometry x="510" y="170" width="160" height="30" as="geometry" />
        </mxCell>
        <mxCell id="KcolCgrBJPJPD1rOeQyU-20" value="Bind" style="rounded=0;whiteSpace=wrap;html=1;" vertex="1" parent="1">
          <mxGeometry x="170" y="170" width="50" height="30" as="geometry" />
        </mxCell>
        <mxCell id="KcolCgrBJPJPD1rOeQyU-32" value="AsTransient" style="text;html=1;align=center;verticalAlign=middle;resizable=0;points=[];autosize=1;strokeColor=#666666;fillColor=#f5f5f5;fontColor=#333333;" vertex="1" parent="1">
          <mxGeometry x="80" y="290" width="90" height="30" as="geometry" />
        </mxCell>
        <mxCell id="KcolCgrBJPJPD1rOeQyU-33" value="Bind" style="rounded=0;whiteSpace=wrap;html=1;" vertex="1" parent="1">
          <mxGeometry x="170" y="290" width="50" height="30" as="geometry" />
        </mxCell>
        <mxCell id="KcolCgrBJPJPD1rOeQyU-34" value="Instance 1" style="rounded=0;whiteSpace=wrap;html=1;fillColor=#d5e8d4;strokeColor=#82b366;" vertex="1" parent="1">
          <mxGeometry x="250" y="290" width="60" height="30" as="geometry" />
        </mxCell>
        <mxCell id="KcolCgrBJPJPD1rOeQyU-35" value="Instance 2" style="rounded=0;whiteSpace=wrap;html=1;fillColor=#d5e8d4;strokeColor=#82b366;gradientColor=none;" vertex="1" parent="1">
          <mxGeometry x="330" y="290" width="60" height="30" as="geometry" />
        </mxCell>
        <mxCell id="KcolCgrBJPJPD1rOeQyU-36" value="Instance 3" style="rounded=0;whiteSpace=wrap;html=1;fillColor=#e1d5e7;strokeColor=#9673a6;" vertex="1" parent="1">
          <mxGeometry x="510" y="290" width="60" height="30" as="geometry" />
        </mxCell>
        <mxCell id="KcolCgrBJPJPD1rOeQyU-37" value="Bind.CopyAll" style="rounded=0;whiteSpace=wrap;html=1;" vertex="1" parent="1">
          <mxGeometry x="170" y="230" width="80" height="30" as="geometry" />
        </mxCell>
        <mxCell id="KcolCgrBJPJPD1rOeQyU-38" value="Instance 1" style="rounded=0;whiteSpace=wrap;html=1;fillColor=#d5e8d4;strokeColor=#82b366;" vertex="1" parent="1">
          <mxGeometry x="250" y="230" width="160" height="30" as="geometry" />
        </mxCell>
        <mxCell id="KcolCgrBJPJPD1rOeQyU-39" value="Implicit Bind" style="rounded=0;whiteSpace=wrap;html=1;fillColor=#f8cecc;strokeColor=#b85450;" vertex="1" parent="1">
          <mxGeometry x="420" y="230" width="50" height="30" as="geometry" />
        </mxCell>
        <mxCell id="KcolCgrBJPJPD1rOeQyU-40" value="Instance 2" style="rounded=0;whiteSpace=wrap;html=1;fillColor=#e1d5e7;strokeColor=#9673a6;" vertex="1" parent="1">
          <mxGeometry x="510" y="230" width="160" height="30" as="geometry" />
        </mxCell>
        <mxCell id="KcolCgrBJPJPD1rOeQyU-47" value="AsCached / AsSingle" style="text;html=1;align=center;verticalAlign=middle;resizable=0;points=[];autosize=1;strokeColor=#666666;fillColor=#f5f5f5;fontColor=#333333;" vertex="1" parent="1">
          <mxGeometry x="30" y="230" width="140" height="30" as="geometry" />
        </mxCell>
        <mxCell id="KcolCgrBJPJPD1rOeQyU-48" value="The only difference is that&lt;br style=&quot;border-color: var(--border-color); color: rgb(51, 51, 51);&quot;&gt;&lt;span style=&quot;color: rgb(51, 51, 51);&quot;&gt;AsSingle forbids multiple bindings&lt;/span&gt;&lt;br style=&quot;border-color: var(--border-color); color: rgb(51, 51, 51);&quot;&gt;&lt;span style=&quot;color: rgb(51, 51, 51);&quot;&gt;&amp;nbsp;IN THE SAME CONTAINER,&lt;/span&gt;&lt;br style=&quot;border-color: var(--border-color); color: rgb(51, 51, 51);&quot;&gt;&lt;span style=&quot;color: rgb(51, 51, 51);&quot;&gt;not children&lt;/span&gt;" style="rounded=0;whiteSpace=wrap;html=1;" vertex="1" parent="1">
          <mxGeometry x="-40" y="160" width="200" height="60" as="geometry" />
        </mxCell>
        <mxCell id="KcolCgrBJPJPD1rOeQyU-49" style="edgeStyle=orthogonalEdgeStyle;rounded=0;orthogonalLoop=1;jettySize=auto;html=1;exitX=0.5;exitY=1;exitDx=0;exitDy=0;" edge="1" parent="1" source="KcolCgrBJPJPD1rOeQyU-37" target="KcolCgrBJPJPD1rOeQyU-37">
          <mxGeometry relative="1" as="geometry" />
        </mxCell>
      </root>
    </mxGraphModel>
  </diagram>
</mxfile>
